<?xml version="1.0" standalone="no"?>
<!DOCTYPE svg PUBLIC "-//W3C//DTD SVG 20010904//EN"
 "http://www.w3.org/TR/2001/REC-SVG-20010904/DTD/svg10.dtd">
<svg version="1.0" xmlns="http://www.w3.org/2000/svg"
 width="72.000000pt" height="72.000000pt" viewBox="0 0 72.000000 72.000000"
 preserveAspectRatio="xMidYMid meet">

<g transform="translate(0.000000,72.000000) scale(0.100000,-0.100000)"
fill="#000000" stroke="none">
<path d="M72 703 c-60 -29 -62 -42 -62 -347 l0 -276 29 -32 29 -33 286 -3 285
-3 38 35 38 34 3 269 c4 392 22 373 -358 373 -215 0 -260 -3 -288 -17z m156
-67 c2 -10 -2 -29 -8 -42 -11 -19 -9 -30 11 -70 31 -62 76 -87 142 -81 57 5
94 30 122 80 17 32 18 40 6 72 -10 28 -10 39 -1 50 29 35 83 -3 60 -42 -5 -10
-14 -37 -20 -61 -21 -84 -129 -154 -208 -136 -77 18 -137 78 -149 148 -3 20
-10 39 -14 42 -14 8 -11 52 4 58 24 10 52 1 55 -18z m299 -317 c57 -28 173
-176 173 -222 0 -10 -13 -32 -29 -48 l-29 -29 -272 0 c-292 0 -312 3 -339 53
-12 22 -10 30 14 75 36 67 109 148 154 172 30 16 57 19 160 20 107 0 131 -3
168 -21z"/>
<path d="M177 239 c-23 -13 -57 -81 -57 -114 0 -35 35 -68 63 -60 85 25 119
186 40 185 -16 0 -36 -5 -46 -11z m47 -55 c17 -17 21 -44 7 -44 -5 0 -11 7
-15 15 -3 8 -12 15 -21 15 -9 0 -18 -7 -21 -15 -7 -18 -24 -20 -24 -3 0 16 30
48 46 48 7 0 20 -7 28 -16z"/>
<path d="M469 234 c-33 -40 0 -134 56 -161 33 -16 36 -15 55 2 37 34 19 123
-32 159 -29 20 -62 20 -79 0z m82 -44 c10 -6 19 -20 19 -30 0 -23 -15 -27 -24
-5 -3 8 -12 15 -20 15 -7 0 -16 -7 -20 -15 -3 -8 -10 -15 -16 -15 -18 0 -11
28 12 44 27 19 24 19 49 6z"/>
<path d="M310 116 c0 -16 37 -46 57 -46 17 0 43 29 42 48 0 14 -3 13 -16 -5
-19 -29 -53 -30 -60 -3 -6 23 -23 27 -23 6z"/>
</g>
</svg>
